<?xml version="1.0" standalone="no"?>
<!DOCTYPE svg PUBLIC "-//W3C//DTD SVG 20010904//EN"
 "http://www.w3.org/TR/2001/REC-SVG-20010904/DTD/svg10.dtd">
<svg version="1.0" xmlns="http://www.w3.org/2000/svg"
 width="237.000000pt" height="98.000000pt" viewBox="0 0 237.000000 98.000000"
 preserveAspectRatio="xMidYMid meet">

<g transform="translate(0.000000,98.000000) scale(0.100000,-0.100000)"
fill="#000000" stroke="none">
<path d="M1828 969 c-10 -5 -18 -15 -18 -21 0 -6 8 -4 18 5 10 10 26 17 34 17
24 0 66 -55 79 -103 7 -23 16 -46 20 -51 14 -16 -8 59 -29 101 -30 58 -65 75
-104 52z"/>
<path d="M2263 943 c36 -6 44 -26 21 -61 -15 -23 -15 -25 -1 -14 40 34 27 83
-22 81 l-26 -2 28 -4z"/>
<path d="M2188 913 c-29 -31 -68 -93 -68 -107 0 -6 14 12 30 38 17 26 42 58
57 72 14 13 22 24 16 24 -5 0 -21 -12 -35 -27z"/>
<path d="M568 913 c-28 -34 -60 -93 -55 -106 2 -6 11 2 20 19 20 39 28 42 130
50 l82 7 -101 -76 c-111 -83 -237 -204 -260 -249 -8 -15 -20 -29 -27 -29 -16
-2 43 -16 68 -17 16 -1 16 1 -5 10 l-25 10 25 10 c36 14 180 39 191 32 5 -3 5
-14 -2 -25 -5 -11 -9 -25 -7 -31 2 -5 22 21 45 59 41 68 49 100 13 53 -16 -21
-34 -27 -114 -40 -74 -12 -96 -13 -96 -4 0 19 142 145 249 222 52 37 93 72 92
77 -1 6 -44 9 -106 8 -104 -2 -116 2 -93 25 7 7 8 12 2 12 -6 0 -18 -8 -26
-17z"/>
<path d="M2191 864 c0 -11 3 -14 6 -6 3 7 2 16 -1 19 -3 4 -6 -2 -5 -13z"/>
<path d="M828 838 c-21 -6 -38 -15 -38 -20 0 -6 11 -7 25 -4 33 8 32 1 -8 -59
-19 -28 -51 -81 -72 -118 -24 -45 -47 -72 -64 -79 -48 -19 -6 -18 69 1 55 14
66 20 43 20 -18 1 -33 6 -33 13 0 14 39 82 102 175 26 40 48 75 48 78 0 7 -29
5 -72 -7z"/>
<path d="M1356 835 c-3 -9 1 -18 10 -22 19 -7 39 11 30 26 -10 16 -33 13 -40
-4z"/>
<path d="M1163 780 c-23 -22 -51 -40 -63 -40 -11 0 -20 -5 -20 -11 0 -6 9 -8
20 -4 18 6 17 0 -11 -59 -17 -36 -29 -73 -27 -83 2 -10 17 -25 35 -33 25 -12
31 -19 26 -37 -9 -38 5 -26 32 26 13 27 29 52 35 56 5 3 10 10 10 16 0 18 -15
9 -35 -21 -26 -39 -59 -37 -63 3 -3 29 29 106 55 132 8 9 33 15 59 15 28 0 43
4 39 10 -3 6 -23 10 -42 10 l-37 0 29 30 c44 45 8 37 -42 -10z"/>
<path d="M943 778 c-31 -35 -56 -78 -45 -78 5 0 12 6 15 14 9 22 66 31 84 13
22 -22 11 -32 -52 -46 -65 -15 -115 -52 -115 -87 0 -31 23 -40 70 -28 35 10
36 9 32 -13 l-4 -24 43 17 c54 21 76 39 37 30 -36 -8 -36 5 2 69 16 28 30 60
30 72 0 28 -31 45 -67 37 -27 -7 -28 -6 -10 13 9 11 17 23 17 26 0 14 -17 6
-37 -15z m29 -140 c-32 -51 -96 -76 -108 -43 -12 30 50 74 104 75 l24 0 -20
-32z"/>
<path d="M1636 758 c-38 -44 -49 -73 -17 -44 11 10 35 19 53 19 27 2 34 -2 36
-19 3 -18 -5 -23 -55 -33 -61 -12 -107 -42 -117 -76 -7 -26 0 -35 50 -62 l42
-22 40 19 c23 11 45 20 51 20 5 0 13 5 17 11 5 8 -1 10 -20 7 -33 -7 -33 -1 4
72 17 33 30 66 30 74 0 23 -34 37 -72 29 l-33 -6 24 27 c14 14 20 26 14 26 -7
0 -28 -19 -47 -42z m40 -127 c-25 -47 -106 -68 -106 -27 0 24 50 56 87 56 l34
0 -15 -29z m-36 -71 c-6 -11 -8 -20 -4 -20 4 0 5 -3 2 -6 -4 -3 -16 0 -29 6
l-22 13 24 13 c34 19 41 17 29 -6z"/>
<path d="M1545 760 c-12 -13 -31 -20 -55 -20 -72 0 -146 -78 -138 -146 3 -27
6 -29 49 -28 31 0 56 7 78 23 43 31 35 35 -17 10 -66 -33 -99 -6 -69 57 17 35
69 74 100 74 14 0 16 -6 12 -27 -5 -25 -5 -26 7 -9 7 10 24 32 37 48 27 33 24
49 -4 18z"/>
<path d="M1875 755 c-51 -20 -85 -53 -85 -82 0 -20 -4 -23 -27 -17 -16 3 8
-12 52 -35 44 -22 87 -41 95 -41 8 0 -3 9 -25 19 -22 10 -51 30 -64 44 -23 25
-23 27 -7 51 22 35 64 54 130 62 125 15 258 -45 242 -110 -9 -36 -60 -66 -116
-67 l-45 -2 40 -6 c40 -6 152 18 135 29 -5 3 -5 12 0 20 29 45 -1 93 -75 125
-56 24 -198 29 -250 10z"/>
<path d="M1271 734 c-39 -17 -37 -30 3 -15 14 6 26 7 26 3 0 -4 -16 -38 -36
-75 -23 -44 -46 -73 -66 -83 -44 -23 -28 -28 33 -10 29 9 64 17 78 17 20 1 22
2 6 6 -48 10 -48 11 -6 88 23 41 41 77 41 80 0 10 -45 4 -79 -11z"/>
<path d="M2100 690 c0 -5 5 -10 11 -10 5 0 7 5 4 10 -3 6 -8 10 -11 10 -2 0
-4 -4 -4 -10z"/>
<path d="M2277 603 c76 -5 93 -23 68 -75 l-16 -33 21 24 c46 53 13 92 -76 89
l-59 -2 62 -3z"/>
<path d="M1845 537 c-83 -47 -97 -135 -30 -200 19 -18 39 -44 44 -58 l10 -24
0 23 c1 13 -10 34 -23 47 -29 29 -56 66 -56 77 0 5 12 8 26 8 14 0 23 -4 20
-9 -7 -11 22 -19 109 -26 39 -3 81 -8 95 -10 46 -7 87 94 60 146 -13 22 -66
52 -83 45 -8 -3 -6 -5 3 -6 8 0 24 -7 34 -15 18 -14 8 -15 -94 -15 -62 0 -111
3 -107 6 3 3 23 12 44 19 31 12 33 14 13 14 -14 1 -43 -9 -65 -22z m-20 -47
c-6 -10 65 -15 198 -12 64 1 67 0 67 -23 0 -12 -9 -33 -19 -46 -17 -21 -20
-22 -26 -7 -7 16 -67 26 -193 31 -30 1 -56 5 -59 10 -5 8 23 57 33 57 3 0 2
-4 -1 -10z m123 -97 c-15 -2 -42 -2 -60 0 -18 2 -6 4 27 4 33 0 48 -2 33 -4z"/>
<path d="M203 508 c-18 -6 -33 -15 -33 -19 0 -9 60 9 75 22 11 11 0 10 -42 -3z"/>
<path d="M1700 500 c8 -5 22 -10 30 -10 13 0 13 1 0 10 -8 5 -22 10 -30 10
-13 0 -13 -1 0 -10z"/>
<path d="M2290 485 c-14 -8 -20 -14 -14 -15 5 0 19 7 30 15 24 18 16 19 -16 0z"/>
<path d="M1668 483 c6 -2 18 -2 25 0 6 3 1 5 -13 5 -14 0 -19 -2 -12 -5z"/>
<path d="M545 450 c16 -16 31 -28 33 -25 7 7 -39 55 -52 55 -5 0 3 -13 19 -30z"/>
<path d="M1604 459 c-3 -6 -2 -15 3 -20 5 -5 9 -1 9 11 0 23 -2 24 -12 9z"/>
<path d="M2238 463 c7 -3 16 -2 19 1 4 3 -2 6 -13 5 -11 0 -14 -3 -6 -6z"/>
<path d="M2200 445 c7 -8 10 -26 8 -40 -3 -13 -1 -22 3 -19 18 11 6 74 -13 74
-6 0 -5 -6 2 -15z"/>
<path d="M60 415 c-13 -14 -21 -27 -18 -30 2 -3 17 9 33 25 16 17 24 30 19 30
-6 0 -21 -11 -34 -25z"/>
<path d="M1091 426 c2 -2 24 -6 49 -10 31 -4 40 -3 30 4 -13 9 -89 15 -79 6z"/>
<path d="M953 393 c-18 -9 -33 -20 -33 -25 0 -5 18 1 40 12 22 11 40 23 40 25
0 8 -13 5 -47 -12z"/>
<path d="M1263 352 c10 -10 17 -24 17 -30 0 -7 5 -12 10 -12 13 0 13 3 -2 35
-6 14 -18 25 -26 25 -13 0 -13 -3 1 -18z"/>
<path d="M600 348 c0 -24 11 -48 22 -48 5 0 6 10 3 23 -10 30 -25 46 -25 25z"/>
<path d="M1964 326 c-39 -19 -75 -40 -80 -47 -6 -11 -5 -12 7 -2 8 6 44 23 82
38 37 15 70 31 73 36 9 14 -7 10 -82 -25z"/>
<path d="M830 289 c-18 -33 -6 -42 13 -9 10 16 14 30 8 30 -6 0 -15 -9 -21
-21z"/>
<path d="M1205 229 c-16 -10 -24 -19 -17 -19 15 0 72 28 72 35 0 10 -26 3 -55
-16z"/>
<path d="M660 232 c0 -13 51 -54 58 -47 3 3 3 6 1 8 -2 1 -16 13 -31 26 -16
14 -28 20 -28 13z"/>
<path d="M1800 185 c-19 -14 -27 -25 -19 -25 16 1 64 38 57 45 -2 3 -20 -6
-38 -20z"/>
<path d="M800 174 c0 -11 7 -29 15 -40 13 -17 14 -17 15 -2 0 12 11 18 38 21
l37 4 -39 1 c-24 1 -44 9 -52 20 -12 16 -13 16 -14 -4z"/>
<path d="M1038 173 c-16 -2 -28 -8 -28 -13 0 -4 19 -4 42 2 70 15 61 22 -14
11z"/>
<path d="M1655 100 c-44 -20 -36 -26 14 -9 17 6 31 15 31 20 0 5 -1 9 -2 8 -2
0 -21 -9 -43 -19z"/>
<path d="M890 70 c0 -10 56 -33 69 -29 6 2 -8 12 -29 21 -22 9 -40 13 -40 8z"/>
<path d="M1485 43 c-11 -3 -24 -9 -30 -15 -10 -10 32 -2 70 13 l20 8 -20 -1
c-11 0 -29 -2 -40 -5z"/>
<path d="M1065 15 c23 -8 85 -10 85 -3 0 4 -21 8 -47 7 -27 0 -43 -2 -38 -4z"/>
<path d="M1285 10 l-30 -8 35 -1 c19 0 42 4 50 9 12 8 11 10 -5 9 -11 -1 -33
-5 -50 -9z"/>
</g>
</svg>
